<svg width="50" height="50" viewBox="0 0 68 68" fill="none" xmlns="http://www.w3.org/2000/svg">
<circle opacity="0.15" cx="34.0924" cy="33.8209" r="33.3209" fill="#4A3AFF"/>
<path d="M38.4333 28.125C38.1465 27.6667 37.7298 27.2889 37.2278 27.0321C36.7257 26.7752 36.1573 26.6489 35.5833 26.6667H32.4167C31.5768 26.6667 30.7714 26.974 30.1775 27.5209C29.5836 28.0679 29.25 28.8098 29.25 29.5833C29.25 30.3569 29.5836 31.0987 30.1775 31.6457C30.7714 32.1927 31.5768 32.5 32.4167 32.5H35.5833C36.4232 32.5 37.2286 32.8073 37.8225 33.3543C38.4164 33.9013 38.75 34.6431 38.75 35.4167C38.75 36.1902 38.4164 36.9321 37.8225 37.4791C37.2286 38.026 36.4232 38.3333 35.5833 38.3333H32.4167C31.8427 38.3511 31.2743 38.2248 30.7722 37.9679C30.2702 37.7111 29.8535 37.3333 29.5667 36.875M34 25.2083V39.7917M48.25 32.5C48.25 39.7487 41.8701 45.625 34 45.625C26.1299 45.625 19.75 39.7487 19.75 32.5C19.75 25.2513 26.1299 19.375 34 19.375C41.8701 19.375 48.25 25.2513 48.25 32.5Z" stroke="#4A3AFF" stroke-linecap="round" stroke-linejoin="round"/>
</svg>
