<svg width="50" height="50" viewBox="0 0 67 68" fill="none" xmlns="http://www.w3.org/2000/svg">
<circle opacity="0.15" cx="33.4107" cy="33.9127" r="33.3209" fill="#4A3AFF"/>
<rect x="16.1078" y="19.3857" width="34.0457" height="28.1681" fill="white"/>
<rect x="21.2757" y="27.8428" width="23.7094" height="5.66188" rx="0.680278" fill="#4A3AFF"/>
<rect x="21.2757" y="36.2759" width="10.8407" height="7.31969" rx="0.680278" fill="#4A3AFF"/>
<rect x="34.1448" y="36.2759" width="10.8407" height="2.30835" rx="0.680278" fill="#4A3AFF"/>
<rect x="34.1448" y="41.2876" width="10.8407" height="2.30835" rx="0.680278" fill="#4A3AFF"/>
<path d="M14.6791 45.2297C14.6791 46.4717 15.1725 47.6628 16.0507 48.541C16.929 49.4192 18.1201 49.9126 19.3621 49.9126H47.4596C48.7016 49.9126 49.8927 49.4192 50.771 48.541C51.6492 47.6628 52.1426 46.4717 52.1426 45.2297V22.5955C52.1426 21.3535 51.6492 20.1624 50.771 19.2842C49.8927 18.406 48.7016 17.9126 47.4596 17.9126H19.3621C18.1201 17.9126 16.929 18.406 16.0507 19.2842C15.1725 20.1624 14.6791 21.3535 14.6791 22.5955V45.2297ZM37.3133 21.815C37.306 22.0923 37.2228 22.3622 37.0729 22.5955C36.9427 22.8318 36.7515 23.0288 36.5192 23.166C36.2869 23.3032 36.0221 23.3755 35.7523 23.3755C35.4825 23.3755 35.2177 23.3032 34.9854 23.166C34.7532 23.0288 34.5619 22.8318 34.4317 22.5955C34.2818 22.3622 34.1986 22.0923 34.1913 21.815C34.1984 21.5378 34.2815 21.2677 34.4317 21.0345C34.5619 20.7983 34.7532 20.6013 34.9854 20.4641C35.2177 20.3269 35.4825 20.2545 35.7523 20.2545C36.0221 20.2545 36.2869 20.3269 36.5192 20.4641C36.7515 20.6013 36.9427 20.7983 37.0729 21.0345C37.2231 21.2677 37.3062 21.5378 37.3133 21.815ZM42.7767 21.815C42.7694 22.0923 42.6863 22.3622 42.5363 22.5955C42.4061 22.8318 42.2149 23.0288 41.9826 23.166C41.7503 23.3032 41.4855 23.3755 41.2157 23.3755C40.946 23.3755 40.6811 23.3032 40.4489 23.166C40.2166 23.0288 40.0254 22.8318 39.8951 22.5955C39.7452 22.3622 39.662 22.0923 39.6547 21.815C39.6618 21.5378 39.745 21.2677 39.8951 21.0345C40.0254 20.7983 40.2166 20.6013 40.4489 20.4641C40.6811 20.3269 40.946 20.2545 41.2157 20.2545C41.4855 20.2545 41.7503 20.3269 41.9826 20.4641C42.2149 20.6013 42.4061 20.7983 42.5363 21.0345C42.6865 21.2677 42.7696 21.5378 42.7767 21.815ZM48.2401 21.815C48.2328 22.0923 48.1497 22.3622 47.9997 22.5955C47.8695 22.8318 47.6783 23.0288 47.446 23.166C47.2137 23.3032 46.9489 23.3755 46.6791 23.3755C46.4094 23.3755 46.1445 23.3032 45.9123 23.166C45.68 23.0288 45.4888 22.8318 45.3586 22.5955C45.2086 22.3622 45.1255 22.0923 45.1182 21.815C45.1252 21.5378 45.2084 21.2677 45.3586 21.0345C45.4908 20.8 45.6825 20.6044 45.9143 20.4674C46.1461 20.3304 46.4099 20.2569 46.6791 20.2541C46.979 20.2554 47.2722 20.3432 47.5236 20.5068C47.7749 20.6704 47.9738 20.9029 48.0965 21.1766C48.1895 21.3767 48.2385 21.5944 48.2401 21.815ZM17.8011 26.1062C17.8011 26.0027 17.8422 25.9034 17.9154 25.8302C17.9886 25.757 18.0878 25.7159 18.1913 25.7159H48.6304C48.7339 25.7159 48.8331 25.757 48.9063 25.8302C48.9795 25.9034 49.0206 26.0027 49.0206 26.1062V45.2281C49.0206 45.6421 48.8561 46.0391 48.5634 46.3319C48.2707 46.6246 47.8736 46.7891 47.4596 46.7891H19.3621C18.9481 46.7891 18.551 46.6246 18.2583 46.3319C17.9655 46.0391 17.8011 45.6421 17.8011 45.2281V26.1062Z" fill="#4A3AFF"/>
</svg>
