<svg width="50" height="50" viewBox="0 0 68 68" fill="none" xmlns="http://www.w3.org/2000/svg">
<circle opacity="0.15" cx="34.0924" cy="33.8209" r="33.3209" fill="#4A3AFF"/>
<rect x="16.7891" y="19.2939" width="34.0457" height="28.1681" fill="white"/>
<path d="M15.3594 45.1379C15.3594 46.3799 15.8528 47.571 16.731 48.4492C17.6092 49.3274 18.8003 49.8208 20.0423 49.8208H48.1399C49.3819 49.8208 50.573 49.3274 51.4512 48.4492C52.3294 47.571 52.8228 46.3799 52.8228 45.1379V22.5037C52.8228 21.2617 52.3294 20.0706 51.4512 19.1924C50.573 18.3142 49.3819 17.8208 48.1399 17.8208H20.0423C18.8003 17.8208 17.6092 18.3142 16.731 19.1924C15.8528 20.0706 15.3594 21.2617 15.3594 22.5037V45.1379ZM37.9935 21.7232C37.9862 22.0005 37.9031 22.2704 37.7531 22.5037C37.6229 22.74 37.4317 22.937 37.1994 23.0742C36.9671 23.2114 36.7023 23.2837 36.4325 23.2837C36.1628 23.2837 35.8979 23.2114 35.6657 23.0742C35.4334 22.937 35.2422 22.74 35.112 22.5037C34.962 22.2704 34.8789 22.0005 34.8716 21.7232C34.8786 21.446 34.9618 21.176 35.112 20.9428C35.2422 20.7065 35.4334 20.5095 35.6657 20.3723C35.8979 20.2351 36.1628 20.1627 36.4325 20.1627C36.7023 20.1627 36.9671 20.2351 37.1994 20.3723C37.4317 20.5095 37.6229 20.7065 37.7531 20.9428C37.9033 21.176 37.9865 21.446 37.9935 21.7232ZM43.4569 21.7232C43.4496 22.0005 43.3665 22.2704 43.2165 22.5037C43.0863 22.74 42.8951 22.937 42.6628 23.0742C42.4306 23.2114 42.1657 23.2837 41.896 23.2837C41.6262 23.2837 41.3614 23.2114 41.1291 23.0742C40.8968 22.937 40.7056 22.74 40.5754 22.5037C40.4254 22.2704 40.3423 22.0005 40.335 21.7232C40.342 21.446 40.4252 21.176 40.5754 20.9428C40.7056 20.7065 40.8968 20.5095 41.1291 20.3723C41.3614 20.2351 41.6262 20.1627 41.896 20.1627C42.1657 20.1627 42.4306 20.2351 42.6628 20.3723C42.8951 20.5095 43.0863 20.7065 43.2165 20.9428C43.3667 21.176 43.4499 21.446 43.4569 21.7232ZM48.9203 21.7232C48.9131 22.0005 48.8299 22.2704 48.68 22.5037C48.5497 22.74 48.3585 22.937 48.1262 23.0742C47.894 23.2114 47.6291 23.2837 47.3594 23.2837C47.0896 23.2837 46.8248 23.2114 46.5925 23.0742C46.3602 22.937 46.169 22.74 46.0388 22.5037C45.8888 22.2704 45.8057 22.0005 45.7984 21.7232C45.8055 21.446 45.8886 21.176 46.0388 20.9428C46.1711 20.7082 46.3627 20.5126 46.5946 20.3756C46.8264 20.2386 47.0901 20.1651 47.3594 20.1623C47.6593 20.1636 47.9525 20.2514 48.2038 20.415C48.4552 20.5786 48.6541 20.8111 48.7767 21.0848C48.8698 21.2849 48.9187 21.5026 48.9203 21.7232ZM18.4813 26.0144C18.4813 25.9109 18.5224 25.8116 18.5956 25.7384C18.6688 25.6652 18.7681 25.6241 18.8716 25.6241H49.3106C49.4141 25.6241 49.5134 25.6652 49.5865 25.7384C49.6597 25.8116 49.7008 25.9109 49.7008 26.0144V45.1363C49.7008 45.5503 49.5364 45.9474 49.2436 46.2401C48.9509 46.5328 48.5539 46.6973 48.1399 46.6973H20.0423C19.6283 46.6973 19.2313 46.5328 18.9385 46.2401C18.6458 45.9474 18.4813 45.5503 18.4813 45.1363V26.0144Z" fill="#4A3AFF"/>
<path d="M25.9623 40.7784C26.255 41.071 26.6519 41.2354 27.0659 41.2354C27.4798 41.2354 27.8767 41.071 28.1695 40.7784L32.0719 36.876C32.3645 36.5832 32.5289 36.1863 32.5289 35.7724C32.5289 35.3584 32.3645 34.9615 32.0719 34.6687L28.1695 30.7663C27.8751 30.482 27.4808 30.3246 27.0715 30.3282C26.6622 30.3317 26.2707 30.4959 25.9813 30.7853C25.6918 31.0747 25.5277 31.4663 25.5241 31.8755C25.5206 32.2848 25.6779 32.6791 25.9623 32.9735L28.4848 35.4961C28.5211 35.5323 28.55 35.5754 28.5696 35.6228C28.5893 35.6702 28.5994 35.721 28.5994 35.7724C28.5994 35.8237 28.5893 35.8745 28.5696 35.9219C28.55 35.9693 28.5211 36.0124 28.4848 36.0487L25.9623 38.5712C25.6696 38.8639 25.5052 39.2609 25.5052 39.6748C25.5052 40.0887 25.6696 40.4857 25.9623 40.7784Z" fill="#4A3AFF"/>
<path d="M35.6521 41.2357H41.896C42.31 41.2357 42.7071 41.0713 42.9998 40.7785C43.2926 40.4858 43.457 40.0887 43.457 39.6747C43.457 39.2607 43.2926 38.8637 42.9998 38.571C42.7071 38.2782 42.31 38.1138 41.896 38.1138H35.6521C35.2381 38.1138 34.8411 38.2782 34.5484 38.571C34.2556 38.8637 34.0912 39.2607 34.0912 39.6747C34.0912 40.0887 34.2556 40.4858 34.5484 40.7785C34.8411 41.0713 35.2381 41.2357 35.6521 41.2357Z" fill="#4A3AFF"/>
</svg>
