<svg width="40" height="40" viewBox="0 0 68 68" fill="none" xmlns="http://www.w3.org/2000/svg">
<circle opacity="0.15" cx="33.9107" cy="34.1246" r="33.3209" fill="#4A3AFF"/>
<path d="M51.257 32.7659C51.2507 31.6687 50.9065 30.6001 50.2712 29.7054C49.6359 28.8108 48.7404 28.1336 47.7066 27.766C47.5048 27.6931 47.2885 27.6699 47.0759 27.6983C46.8633 27.7267 46.6606 27.806 46.4852 27.9293C46.3097 28.0527 46.1665 28.2165 46.0678 28.407C45.9691 28.5974 45.9177 28.8088 45.918 29.0234L45.9367 39.2314C45.9372 39.4454 45.9892 39.6562 46.0883 39.846C46.1874 40.0357 46.3307 40.1988 46.506 40.3216C46.6814 40.4443 46.8837 40.5231 47.0959 40.5513C47.3081 40.5794 47.524 40.5561 47.7253 40.4833C48.7612 40.1107 49.6566 39.4269 50.2888 38.5256C50.921 37.6243 51.2592 36.5497 51.257 35.4487V32.7659Z" fill="#4A3AFF"/>
<path d="M44.7931 21.3689C44.7931 21.0389 44.662 20.7224 44.4286 20.489C44.1952 20.2556 43.8787 20.1245 43.5487 20.1245C43.2187 20.1245 42.9022 20.2556 42.6688 20.489C42.4354 20.7224 42.3043 21.0389 42.3043 21.3689V22.3321L19.7137 29.6254C19.5885 29.6659 19.4794 29.7451 19.402 29.8515C19.3247 29.958 19.283 30.0862 19.2831 30.2178V37.6306C19.2831 37.763 19.3253 37.8919 19.4037 37.9987C19.482 38.1054 19.5923 38.1844 19.7186 38.2242L21.3364 38.7319C21.4627 38.7716 21.573 38.8506 21.6513 38.9573C21.7297 39.0641 21.7719 39.193 21.7719 39.3254V42.5496C21.7801 44.03 22.3735 45.447 23.4226 46.4914C24.4717 47.5358 25.8913 48.1229 27.3716 48.1245H27.3978C28.8815 48.116 30.3014 47.5195 31.3462 46.4659C32.3909 45.4122 32.9754 43.9874 32.9714 42.5036V42.3792L42.3043 45.3035V46.2567C42.3043 46.5867 42.4354 46.9032 42.6688 47.1366C42.9022 47.37 43.2187 47.5011 43.5487 47.5011C43.8787 47.5011 44.1952 47.37 44.4286 47.1366C44.662 46.9032 44.7931 46.5867 44.7931 46.2567V21.3689ZM30.4826 42.5098C30.4846 42.9184 30.4061 43.3233 30.2515 43.7015C30.097 44.0797 29.8695 44.4237 29.582 44.714C29.2945 45.0043 28.9527 45.2351 28.576 45.3932C28.1993 45.5514 27.7951 45.6338 27.3866 45.6357H27.3716C26.55 45.6357 25.7617 45.3107 25.1789 44.7316C24.596 44.1525 24.2659 43.3663 24.2607 42.5447V40.4952C24.2607 40.3975 24.2837 40.3011 24.3278 40.214C24.3719 40.1268 24.436 40.0513 24.5148 39.9935C24.5935 39.9357 24.6848 39.8973 24.7812 39.8813C24.8775 39.8653 24.9763 39.8723 25.0695 39.9016L30.0471 41.4621C30.1734 41.5018 30.2837 41.5808 30.3621 41.6875C30.4404 41.7943 30.4826 41.9232 30.4826 42.0556V42.5098Z" fill="#4A3AFF"/>
<path d="M19.2821 29.6432C19.2821 29.309 19.1371 28.9886 18.8792 28.7523C18.6213 28.516 18.2714 28.3833 17.9067 28.3833C17.5419 28.3833 17.192 28.516 16.9341 28.7523C16.6762 28.9886 16.5312 29.309 16.5312 29.6432L16.5381 38.4623C16.5381 38.6278 16.5737 38.7916 16.6428 38.9445C16.7119 39.0973 16.8133 39.2362 16.941 39.3532C17.0687 39.4702 17.2203 39.563 17.3872 39.6263C17.5541 39.6896 17.7329 39.7222 17.9135 39.7222H17.9067C18.2658 39.7223 18.6107 39.5937 18.8677 39.364C19.1247 39.1342 19.2734 38.8214 19.2821 38.4926V29.6432Z" fill="white"/>
</svg>
