<svg width="50" height="50" viewBox="0 0 68 68" fill="none" xmlns="http://www.w3.org/2000/svg">
<circle cx="34.0274" cy="33.8807" r="8.78843" fill="white"/>
<path fill-rule="evenodd" clip-rule="evenodd" d="M51.2855 37.3919C52.0252 37.7848 52.5957 38.4052 52.9972 39.0255C53.7792 40.3076 53.7158 41.8792 52.955 43.2646L51.4757 45.746C50.6938 47.0695 49.2357 47.8966 47.7353 47.8966C46.9956 47.8966 46.1715 47.6898 45.4952 47.2762C44.9458 46.9247 44.3118 46.8006 43.6356 46.8006C41.5434 46.8006 39.7894 48.5169 39.726 50.5641C39.726 52.9421 37.7819 54.8032 35.3516 54.8032H32.4776C30.0262 54.8032 28.082 52.9421 28.082 50.5641C28.0398 48.5169 26.2858 46.8006 24.1937 46.8006C23.4963 46.8006 22.8623 46.9247 22.334 47.2762C21.6578 47.6898 20.8125 47.8966 20.0939 47.8966C18.5724 47.8966 17.1143 47.0695 16.3324 45.746L14.8742 43.2646C14.0923 41.9205 14.0501 40.3076 14.832 39.0255C15.1701 38.4052 15.8041 37.7848 16.5226 37.3919C17.1143 37.1024 17.4947 36.6268 17.8539 36.0685C18.9105 34.2902 18.2766 31.9535 16.4803 30.8989C14.3882 29.7202 13.7119 27.0941 14.9165 25.0469L16.3324 22.6068C17.5581 20.5597 20.1785 19.8359 22.2917 21.0353C24.1303 22.0278 26.5182 21.3661 27.596 19.6085C27.9341 19.0295 28.1243 18.4091 28.082 17.7888C28.0398 16.9823 28.2722 16.2172 28.6737 15.5968C29.4556 14.3148 30.8715 13.4876 32.4142 13.4463H35.3939C36.9577 13.4463 38.3736 14.3148 39.1555 15.5968C39.5358 16.2172 39.7894 16.9823 39.726 17.7888C39.6838 18.4091 39.874 19.0295 40.2121 19.6085C41.2898 21.3661 43.6778 22.0278 45.5375 21.0353C47.6296 19.8359 50.2712 20.5597 51.4757 22.6068L52.8916 25.0469C54.1173 27.0941 53.441 29.7202 51.3278 30.8989C49.5315 31.9535 48.8975 34.2902 49.9753 36.0685C50.3134 36.6268 50.6938 37.1024 51.2855 37.3919ZM27.9349 34.1449C27.9349 37.3914 30.6187 39.9762 33.9365 39.9762C37.2543 39.9762 39.8748 37.3914 39.8748 34.1449C39.8748 30.8984 37.2543 28.2929 33.9365 28.2929C30.6187 28.2929 27.9349 30.8984 27.9349 34.1449Z" fill="#4A3AFF"/>
<circle opacity="0.15" cx="33.9107" cy="34.1246" r="33.3209" fill="#4A3AFF"/>
</svg>
